<?xml version="1.0" encoding="UTF-8" standalone="no"?>
<!-- Created with Inkscape (http://www.inkscape.org/) -->

<svg
   version="1.1"
   id="svg2"
   width="3333.3333"
   height="3333.3333"
   viewBox="0 0 3333.3333 3333.3333"
   sodipodi:docname="vecteezy_meditate-yoga-person-sitting-in-lotus-position-line-icon_6408741.eps"
   xmlns:inkscape="http://www.inkscape.org/namespaces/inkscape"
   xmlns:sodipodi="http://sodipodi.sourceforge.net/DTD/sodipodi-0.dtd"
   xmlns="http://www.w3.org/2000/svg"
   xmlns:svg="http://www.w3.org/2000/svg">
  <defs
     id="defs6" />
  <sodipodi:namedview
     id="namedview4"
     pagecolor="#ffffff"
     bordercolor="#000000"
     borderopacity="0.25"
     inkscape:showpageshadow="2"
     inkscape:pageopacity="0.0"
     inkscape:pagecheckerboard="0"
     inkscape:deskcolor="#d1d1d1" />
  <g
     id="g8"
     inkscape:groupmode="layer"
     inkscape:label="ink_ext_XXXXXX"
     transform="matrix(1.3333333,0,0,-1.3333333,0,3333.3333)">
    <g
       id="g10"
       transform="scale(0.1)">
      <path
         d="M 25000,0 H 0 V 25000 H 25000 V 0"
         style="fill:#ffffff;fill-opacity:1;fill-rule:nonzero;stroke:none"
         id="path12" />
      <path
         d="m 14554.5,17972.1 c 0,-1137.3 -922,-2059.2 -2059.2,-2059.2 -1137.3,0 -2059.3,921.9 -2059.3,2059.2 0,1137.2 922,2059.2 2059.3,2059.2 1137.2,0 2059.2,-922 2059.2,-2059.2"
         style="fill:#ffffff;fill-opacity:1;fill-rule:nonzero;stroke:none"
         id="path14" />
      <path
         d="m 14554.5,17972.1 c 0,-1137.3 -922,-2059.2 -2059.2,-2059.2 -1137.3,0 -2059.3,921.9 -2059.3,2059.2 0,1137.2 922,2059.2 2059.3,2059.2 1137.2,0 2059.2,-922 2059.2,-2059.2 z"
         style="fill:none;stroke:#1d1d1b;stroke-width:429.106;stroke-linecap:butt;stroke-linejoin:miter;stroke-miterlimit:10;stroke-dasharray:none;stroke-opacity:1"
         id="path16" />
      <path
         d="m 18849.5,10136.6 -1487.8,1117.2 c -21.2,16.2 -41.6,33.3 -61.3,51.4 -141.8,130.2 -239,301.2 -278,490.8 l -40.7,182.4 -386.9,1606.5 c -220.9,1321.3 -1364.3,2289.3 -2703.8,2289.3 h -2791.5 c -1339.53,0 -2482.91,-968 -2703.81,-2289.3 l -377.35,-1606.5 -40.77,-182.4 c -38.96,-189.6 -136.15,-360.6 -277.96,-490.8 -19.72,-18.1 -40.16,-35.2 -61.31,-51.4 L 6150.47,10136.6 c -393.49,-301.8 -494,-864.7 -206.16,-1268.8 302.28,-424.5 892.61,-510.4 1302.43,-196 l 804.27,607.7 385.12,290.6 865.41,653.7 c 174.85,134.3 295.98,327.3 339.62,543.4 l 689.54,2179.2 v -932 c 0,-927.5 17,-1745.8 -101.7,-2303.5 L 7138.77,8456.3 c -517.12,-277.8 -711.21,-922.1 -433.49,-1439.2 191.76,-357.2 558.39,-560.2 937.27,-560.2 169.72,0 341.91,40.7 501.9,126.6 l 2019.95,1084.8 4749.3,-0.8 1865.9,-930 c 153.7,-77.6 317.2,-114.3 478.3,-114.3 388.3,0 762.5,213.5 949.5,583.8 264.6,523.8 54.5,1163.1 -469.4,1427.8 l -2975.6,1098.3 c -117.5,555.1 -100.2,1371.9 -100.2,2296.7 v 916.6 l 696.6,-2179.2 c 43.7,-216.1 164.8,-409.1 339.7,-543.4 l 865.4,-653.7 385.1,-290.6 804.3,-607.7 c 409.8,-314.4 1000.1,-228.5 1302.4,196 287.8,404.1 187.3,967 -206.2,1268.8 z"
         style="fill:none;stroke:#1d1d1b;stroke-width:429.106;stroke-linecap:round;stroke-linejoin:round;stroke-miterlimit:10;stroke-dasharray:none;stroke-opacity:1"
         id="path18" />
      <path
         d="m 13252.7,5783.9 c -42.2,0 -84.9,2.5 -127.9,7.8 l -5609.81,673 c -582.76,69.9 -998.56,599 -928.63,1181.8 69.89,582.8 573.37,453.9 1156.47,382.9 L 13378,7902.1 c 582.8,-69.9 998.6,-599.1 928.6,-1181.9 -64.7,-539.8 -523.5,-936.3 -1053.9,-936.3"
         style="fill:#ffffff;fill-opacity:1;fill-rule:nonzero;stroke:none"
         id="path20" />
      <path
         d="M 9652.68,8349 13378,7902.1 c 582.8,-69.9 998.6,-599.1 928.6,-1181.9 -64.7,-539.8 -523.5,-936.3 -1053.9,-936.3 -42.2,0 -84.9,2.5 -127.9,7.8 l -5609.81,673 c -582.76,69.9 -998.56,599 -928.63,1181.8 45.14,376.4 281.74,683.6 600.75,834.8"
         style="fill:none;stroke:#1d1d1b;stroke-width:460.246;stroke-linecap:round;stroke-linejoin:round;stroke-miterlimit:10;stroke-dasharray:none;stroke-opacity:1"
         id="path22" />
      <path
         d="m 18282.3,7972.4 c 158.1,-565.3 -172,-1151.6 -737.3,-1309.8 L 11630.3,5008.3 c -95.7,-26.7 -192.1,-39.6 -286.9,-39.6 -464.7,0 -891.6,307.3 -1022.9,776.9 -158.1,565.3 172,1151.7 737.3,1309.8 l 4661.7,1303.9 c 0,0 2472.4,-63.6 2562.8,-386.9"
         style="fill:#ffffff;fill-opacity:1;fill-rule:nonzero;stroke:none"
         id="path24" />
      <path
         d="m 17674.9,8663.9 c 286.4,-122.1 517,-368.2 607.4,-691.5 158.1,-565.3 -172,-1151.6 -737.3,-1309.8 L 11630.3,5008.3 c -95.7,-26.7 -192.1,-39.6 -286.9,-39.6 -464.7,0 -891.6,307.3 -1022.9,776.9 -158.1,565.3 172,1151.7 737.3,1309.8 l 4224.1,1181.5"
         style="fill:none;stroke:#1d1d1b;stroke-width:460.246;stroke-linecap:round;stroke-linejoin:round;stroke-miterlimit:10;stroke-dasharray:none;stroke-opacity:1"
         id="path26" />
    </g>
  </g>
</svg>
